<svg width="118" height="132" viewBox="0 0 118 132" fill="none" xmlns="http://www.w3.org/2000/svg">
<path d="M109.109 0H8.55758C3.83136 0 0 3.83136 0 8.55758V123.015C0 127.741 3.83136 131.573 8.55758 131.573H109.109C113.835 131.573 117.667 127.741 117.667 123.015V8.55758C117.667 3.83136 113.835 0 109.109 0Z" fill="white"/>
<path d="M23.0074 16.6956C23.1443 16.6956 93.123 15.737 93.5338 16.1478C95.3141 17.7911 96.2727 35.32 96.2727 55.177C90.521 49.0145 80.2502 40.9348 65.0494 38.7437C60.3932 37.6481 56.6957 38.0589 56.6957 38.0589C54.0938 38.3328 52.1766 40.387 52.4505 42.9889C52.5874 45.18 54.3677 46.8234 56.4218 47.2342C56.8327 47.2342 57.3805 47.3712 57.9282 47.3712C59.4346 47.3712 60.6671 47.5081 62.0366 47.782C67.3774 49.1514 75.1833 54.7662 71.6227 75.1709C61.7627 72.2951 54.2307 74.2123 52.5874 76.6773C49.3007 81.3334 52.0396 98.3146 54.9155 115.98C38.756 115.98 23.5551 115.296 22.5965 113.789C19.8576 108.859 22.5965 17.1064 23.0074 16.6956V16.6956Z" fill="#302939"/>
</svg>
